# This file uses centimeters as units for non-parametric coordinates.

g default
v -0.500000 -0.355845 0.500000
v 0.500000 -0.355845 0.500000
v -0.500000 0.644155 0.500000
v 0.500000 0.644155 0.500000
v -0.500000 0.644155 -0.500000
v 0.500000 0.644155 -0.500000
v -0.500000 -0.355845 -0.500000
v 0.500000 -0.355845 -0.500000
vt 0.288977 0.003584
vt 0.707438 -0.003584
vt 0.290769 0.296596
vt 0.703854 0.301972
vt 0.288977 0.489247
vt 0.709230 0.489247
vt 0.288977 0.739247
vt 0.709230 0.739247
vt 0.292562 0.901432
vt 0.712815 0.901432
vt 0.903674 -0.003584
vt 0.909051 0.298388
vt 0.090949 0.001792
vt 0.090949 0.296596
vn 0.000000 0.000000 1.000000
vn 0.000000 0.000000 1.000000
vn 0.000000 0.000000 1.000000
vn 0.000000 0.000000 1.000000
vn 0.000000 1.000000 0.000000
vn 0.000000 1.000000 0.000000
vn 0.000000 1.000000 0.000000
vn 0.000000 1.000000 0.000000
vn 0.000000 0.000000 -1.000000
vn 0.000000 0.000000 -1.000000
vn 0.000000 0.000000 -1.000000
vn 0.000000 0.000000 -1.000000
vn 0.000000 -1.000000 0.000000
vn 0.000000 -1.000000 0.000000
vn 0.000000 -1.000000 0.000000
vn 0.000000 -1.000000 0.000000
vn 1.000000 0.000000 0.000000
vn 1.000000 0.000000 0.000000
vn 1.000000 0.000000 0.000000
vn 1.000000 0.000000 0.000000
vn -1.000000 0.000000 0.000000
vn -1.000000 0.000000 0.000000
vn -1.000000 0.000000 0.000000
vn -1.000000 0.000000 0.000000
s off
g pCube1
f 1/1/1 2/2/2 4/4/3 3/3/4
f 3/3/5 4/4/6 6/6/7 5/5/8
f 5/5/9 6/6/10 8/8/11 7/7/12
f 7/7/13 8/8/14 2/10/15 1/9/16
f 2/2/17 8/11/18 6/12/19 4/4/20
f 7/13/21 1/1/22 3/3/23 5/14/24
