# This file uses centimeters as units for non-parametric coordinates.

mtllib building.mtl
g default
v -1.832038 0.444118 1.131859
v 1.832038 0.444118 1.131859
v -1.832038 7.905790 1.131859
v 1.832038 7.905790 1.131859
v -1.832038 7.905790 -1.131859
v 1.832038 7.905790 -1.131859
v -1.832038 0.444118 -1.131859
v 1.832038 0.444118 -1.131859
vt 0.021676 0.199068
vt 0.203822 0.199263
vt 0.203180 0.799653
vt 0.021034 0.799459
vt 0.498646 0.199578
vt 0.680792 0.199773
vt 0.680150 0.800163
vt 0.498004 0.799968
vt 0.497809 0.982114
vt 0.202986 0.981799
vt 0.204017 0.017117
vt 0.498840 0.017432
vt 0.975615 0.200088
vt 0.974974 0.800478
vn 0.000000 0.000000 1.000000
vn 0.000000 0.000000 1.000000
vn 0.000000 0.000000 1.000000
vn 0.000000 0.000000 1.000000
vn 0.000000 1.000000 0.000000
vn 0.000000 1.000000 0.000000
vn 0.000000 1.000000 0.000000
vn 0.000000 1.000000 0.000000
vn 0.000000 0.000000 -1.000000
vn 0.000000 0.000000 -1.000000
vn 0.000000 0.000000 -1.000000
vn 0.000000 0.000000 -1.000000
vn 0.000000 -1.000000 0.000000
vn 0.000000 -1.000000 0.000000
vn 0.000000 -1.000000 0.000000
vn 0.000000 -1.000000 0.000000
vn 1.000000 0.000000 0.000000
vn 1.000000 0.000000 0.000000
vn 1.000000 0.000000 0.000000
vn 1.000000 0.000000 0.000000
vn -1.000000 0.000000 0.000000
vn -1.000000 0.000000 0.000000
vn -1.000000 0.000000 0.000000
vn -1.000000 0.000000 0.000000
s off
g building
usemtl initialShadingGroup
f 1/6/1 2/13/2 4/14/3 3/7/4
f 3/9/5 4/10/6 6/3/7 5/8/8
f 5/8/9 6/3/10 8/2/11 7/5/12
f 7/5/13 8/2/14 2/11/15 1/12/16
f 2/1/17 8/2/18 6/3/19 4/4/20
f 7/5/21 1/6/22 3/7/23 5/8/24
